<mxfile host="app.diagrams.net" agent="Mozilla/5.0 (Macintosh; Intel Mac OS X 10_15_7) AppleWebKit/605.1.15 (KHTML, like Gecko) Version/18.0.1 Safari/605.1.15" version="24.8.0">
  <diagram id="R2lEEEUBdFMjLlhIrx00" name="Page-1">
    <mxGraphModel dx="2044" dy="1842" grid="1" gridSize="10" guides="1" tooltips="1" connect="1" arrows="1" fold="1" page="1" pageScale="1" pageWidth="850" pageHeight="1100" math="0" shadow="0" extFonts="Permanent Marker^https://fonts.googleapis.com/css?family=Permanent+Marker">
      <root>
        <mxCell id="0" />
        <mxCell id="1" parent="0" />
        <mxCell id="x4BYb8i_tC0dA8c9-Woo-3" value="futár" style="rounded=1;whiteSpace=wrap;html=1;" parent="1" vertex="1">
          <mxGeometry x="300" y="-60" width="90" height="30" as="geometry" />
        </mxCell>
        <mxCell id="x4BYb8i_tC0dA8c9-Woo-35" style="edgeStyle=orthogonalEdgeStyle;rounded=0;orthogonalLoop=1;jettySize=auto;html=1;exitX=0.5;exitY=1;exitDx=0;exitDy=0;endArrow=none;endFill=0;" parent="1" source="x4BYb8i_tC0dA8c9-Woo-4" target="x4BYb8i_tC0dA8c9-Woo-14" edge="1">
          <mxGeometry relative="1" as="geometry" />
        </mxCell>
        <mxCell id="x4BYb8i_tC0dA8c9-Woo-59" style="edgeStyle=orthogonalEdgeStyle;rounded=0;orthogonalLoop=1;jettySize=auto;html=1;exitX=0.5;exitY=0;exitDx=0;exitDy=0;endArrow=none;endFill=0;startArrow=classic;startFill=1;" parent="1" source="x4BYb8i_tC0dA8c9-Woo-4" target="SuuwJisFTRQqqVZGx64X-61" edge="1">
          <mxGeometry relative="1" as="geometry">
            <mxPoint x="345" y="340" as="targetPoint" />
          </mxGeometry>
        </mxCell>
        <mxCell id="x4BYb8i_tC0dA8c9-Woo-4" value="étterem" style="rounded=1;whiteSpace=wrap;html=1;" parent="1" vertex="1">
          <mxGeometry x="300" y="430" width="90" height="30" as="geometry" />
        </mxCell>
        <mxCell id="SuuwJisFTRQqqVZGx64X-47" style="edgeStyle=orthogonalEdgeStyle;rounded=0;orthogonalLoop=1;jettySize=auto;html=1;exitX=1;exitY=0.5;exitDx=0;exitDy=0;endArrow=none;endFill=0;" edge="1" parent="1" source="x4BYb8i_tC0dA8c9-Woo-6" target="SuuwJisFTRQqqVZGx64X-43">
          <mxGeometry relative="1" as="geometry" />
        </mxCell>
        <mxCell id="x4BYb8i_tC0dA8c9-Woo-6" value="termék" style="rounded=1;whiteSpace=wrap;html=1;" parent="1" vertex="1">
          <mxGeometry x="300" y="620" width="90" height="30" as="geometry" />
        </mxCell>
        <mxCell id="x4BYb8i_tC0dA8c9-Woo-56" style="edgeStyle=orthogonalEdgeStyle;rounded=0;orthogonalLoop=1;jettySize=auto;html=1;exitX=0.5;exitY=1;exitDx=0;exitDy=0;endArrow=none;endFill=0;startArrow=classic;startFill=1;" parent="1" source="x4BYb8i_tC0dA8c9-Woo-7" target="SuuwJisFTRQqqVZGx64X-59" edge="1">
          <mxGeometry relative="1" as="geometry">
            <mxPoint x="140" y="235" as="targetPoint" />
            <Array as="points">
              <mxPoint x="103" y="235" />
            </Array>
          </mxGeometry>
        </mxCell>
        <mxCell id="x4BYb8i_tC0dA8c9-Woo-7" value="felhasználó" style="rounded=1;whiteSpace=wrap;html=1;" parent="1" vertex="1">
          <mxGeometry x="57.5" y="125" width="90" height="30" as="geometry" />
        </mxCell>
        <mxCell id="x4BYb8i_tC0dA8c9-Woo-54" style="edgeStyle=orthogonalEdgeStyle;rounded=0;orthogonalLoop=1;jettySize=auto;html=1;endArrow=none;endFill=0;" parent="1" source="SuuwJisFTRQqqVZGx64X-58" target="SuuwJisFTRQqqVZGx64X-60" edge="1">
          <mxGeometry relative="1" as="geometry">
            <mxPoint x="345" y="220" as="sourcePoint" />
            <mxPoint x="345" y="90" as="targetPoint" />
          </mxGeometry>
        </mxCell>
        <mxCell id="x4BYb8i_tC0dA8c9-Woo-82" style="edgeStyle=orthogonalEdgeStyle;rounded=0;orthogonalLoop=1;jettySize=auto;html=1;endArrow=none;endFill=0;" parent="1" source="SuuwJisFTRQqqVZGx64X-58" target="x4BYb8i_tC0dA8c9-Woo-81" edge="1">
          <mxGeometry relative="1" as="geometry">
            <mxPoint x="390" y="235" as="sourcePoint" />
          </mxGeometry>
        </mxCell>
        <mxCell id="x4BYb8i_tC0dA8c9-Woo-83" style="edgeStyle=orthogonalEdgeStyle;rounded=0;orthogonalLoop=1;jettySize=auto;html=1;exitX=0.5;exitY=1;exitDx=0;exitDy=0;endArrow=none;endFill=0;" parent="1" source="x4BYb8i_tC0dA8c9-Woo-14" target="x4BYb8i_tC0dA8c9-Woo-6" edge="1">
          <mxGeometry relative="1" as="geometry" />
        </mxCell>
        <mxCell id="x4BYb8i_tC0dA8c9-Woo-14" value="elkészítés" style="rhombus;whiteSpace=wrap;html=1;" parent="1" vertex="1">
          <mxGeometry x="305" y="520" width="80" height="50" as="geometry" />
        </mxCell>
        <mxCell id="x4BYb8i_tC0dA8c9-Woo-55" style="edgeStyle=orthogonalEdgeStyle;rounded=0;orthogonalLoop=1;jettySize=auto;html=1;endArrow=none;endFill=0;entryX=0.324;entryY=0.643;entryDx=0;entryDy=0;entryPerimeter=0;" parent="1" source="SuuwJisFTRQqqVZGx64X-59" target="SuuwJisFTRQqqVZGx64X-58" edge="1">
          <mxGeometry relative="1" as="geometry">
            <mxPoint x="220" y="235" as="sourcePoint" />
            <mxPoint x="300" y="235" as="targetPoint" />
          </mxGeometry>
        </mxCell>
        <mxCell id="x4BYb8i_tC0dA8c9-Woo-53" style="edgeStyle=orthogonalEdgeStyle;rounded=0;orthogonalLoop=1;jettySize=auto;html=1;endArrow=classic;endFill=1;startArrow=none;startFill=0;" parent="1" source="SuuwJisFTRQqqVZGx64X-60" target="x4BYb8i_tC0dA8c9-Woo-3" edge="1">
          <mxGeometry relative="1" as="geometry">
            <mxPoint x="345" y="35" as="sourcePoint" />
          </mxGeometry>
        </mxCell>
        <mxCell id="x4BYb8i_tC0dA8c9-Woo-58" style="edgeStyle=orthogonalEdgeStyle;rounded=0;orthogonalLoop=1;jettySize=auto;html=1;endArrow=none;endFill=0;" parent="1" source="SuuwJisFTRQqqVZGx64X-61" target="SuuwJisFTRQqqVZGx64X-58" edge="1">
          <mxGeometry relative="1" as="geometry">
            <mxPoint x="345" y="280" as="sourcePoint" />
            <mxPoint x="345" y="250" as="targetPoint" />
          </mxGeometry>
        </mxCell>
        <mxCell id="x4BYb8i_tC0dA8c9-Woo-66" style="edgeStyle=orthogonalEdgeStyle;rounded=0;orthogonalLoop=1;jettySize=auto;html=1;exitX=1;exitY=0.5;exitDx=0;exitDy=0;endArrow=none;endFill=0;" parent="1" source="x4BYb8i_tC0dA8c9-Woo-60" target="x4BYb8i_tC0dA8c9-Woo-7" edge="1">
          <mxGeometry relative="1" as="geometry" />
        </mxCell>
        <mxCell id="x4BYb8i_tC0dA8c9-Woo-60" value="felhasználónév" style="ellipse;whiteSpace=wrap;html=1;fontStyle=4" parent="1" vertex="1">
          <mxGeometry x="-90" y="90" width="90" height="40" as="geometry" />
        </mxCell>
        <mxCell id="x4BYb8i_tC0dA8c9-Woo-68" style="edgeStyle=orthogonalEdgeStyle;rounded=0;orthogonalLoop=1;jettySize=auto;html=1;exitX=1;exitY=0.5;exitDx=0;exitDy=0;endArrow=none;endFill=0;" parent="1" source="x4BYb8i_tC0dA8c9-Woo-61" target="x4BYb8i_tC0dA8c9-Woo-7" edge="1">
          <mxGeometry relative="1" as="geometry" />
        </mxCell>
        <mxCell id="x4BYb8i_tC0dA8c9-Woo-61" value="jelszó&lt;span style=&quot;caret-color: rgba(0, 0, 0, 0); color: rgba(0, 0, 0, 0); font-family: monospace; font-size: 0px; text-align: start; white-space: nowrap;&quot;&gt;%3CmxGraphModel%3E%3Croot%3E%3CmxCell%20id%3D%220%22%2F%3E%3CmxCell%20id%3D%221%22%20parent%3D%220%22%2F%3E%3CmxCell%20id%3D%222%22%20value%3D%22felhaszn%C3%A1l%C3%B3n%C3%A9v%22%20style%3D%22ellipse%3BwhiteSpace%3Dwrap%3Bhtml%3D1%3B%22%20vertex%3D%221%22%20parent%3D%221%22%3E%3CmxGeometry%20x%3D%22-80%22%20y%3D%22120%22%20width%3D%2290%22%20height%3D%2240%22%20as%3D%22geometry%22%2F%3E%3C%2FmxCell%3E%3C%2Froot%3E%3C%2FmxGraphModel%3E&lt;/span&gt;" style="ellipse;whiteSpace=wrap;html=1;" parent="1" vertex="1">
          <mxGeometry x="-90" y="150" width="90" height="40" as="geometry" />
        </mxCell>
        <mxCell id="x4BYb8i_tC0dA8c9-Woo-67" style="edgeStyle=orthogonalEdgeStyle;rounded=0;orthogonalLoop=1;jettySize=auto;html=1;exitX=1;exitY=0.5;exitDx=0;exitDy=0;endArrow=none;endFill=0;" parent="1" source="x4BYb8i_tC0dA8c9-Woo-62" target="x4BYb8i_tC0dA8c9-Woo-7" edge="1">
          <mxGeometry relative="1" as="geometry">
            <Array as="points">
              <mxPoint x="50" y="50" />
              <mxPoint x="50" y="140" />
            </Array>
          </mxGeometry>
        </mxCell>
        <mxCell id="x4BYb8i_tC0dA8c9-Woo-62" value="emailcím" style="ellipse;whiteSpace=wrap;html=1;" parent="1" vertex="1">
          <mxGeometry x="-90" y="30" width="90" height="40" as="geometry" />
        </mxCell>
        <mxCell id="x4BYb8i_tC0dA8c9-Woo-69" style="edgeStyle=orthogonalEdgeStyle;rounded=0;orthogonalLoop=1;jettySize=auto;html=1;exitX=1;exitY=0.5;exitDx=0;exitDy=0;endArrow=none;endFill=0;" parent="1" source="x4BYb8i_tC0dA8c9-Woo-63" target="x4BYb8i_tC0dA8c9-Woo-7" edge="1">
          <mxGeometry relative="1" as="geometry">
            <Array as="points">
              <mxPoint x="50" y="230" />
              <mxPoint x="50" y="140" />
            </Array>
          </mxGeometry>
        </mxCell>
        <mxCell id="x4BYb8i_tC0dA8c9-Woo-63" value="lakcím" style="ellipse;whiteSpace=wrap;html=1;" parent="1" vertex="1">
          <mxGeometry x="-90" y="210" width="90" height="40" as="geometry" />
        </mxCell>
        <mxCell id="x4BYb8i_tC0dA8c9-Woo-80" style="edgeStyle=orthogonalEdgeStyle;rounded=0;orthogonalLoop=1;jettySize=auto;html=1;exitX=0;exitY=0.5;exitDx=0;exitDy=0;endArrow=none;endFill=0;" parent="1" source="x4BYb8i_tC0dA8c9-Woo-72" target="x4BYb8i_tC0dA8c9-Woo-4" edge="1">
          <mxGeometry relative="1" as="geometry">
            <Array as="points">
              <mxPoint x="370" y="500" />
            </Array>
          </mxGeometry>
        </mxCell>
        <mxCell id="x4BYb8i_tC0dA8c9-Woo-72" value="név" style="ellipse;whiteSpace=wrap;html=1;fontStyle=4" parent="1" vertex="1">
          <mxGeometry x="420" y="480" width="90" height="40" as="geometry" />
        </mxCell>
        <mxCell id="x4BYb8i_tC0dA8c9-Woo-79" style="edgeStyle=orthogonalEdgeStyle;rounded=0;orthogonalLoop=1;jettySize=auto;html=1;exitX=0;exitY=0.5;exitDx=0;exitDy=0;endArrow=none;endFill=0;" parent="1" source="x4BYb8i_tC0dA8c9-Woo-73" target="x4BYb8i_tC0dA8c9-Woo-4" edge="1">
          <mxGeometry relative="1" as="geometry">
            <Array as="points">
              <mxPoint x="370" y="370" />
            </Array>
          </mxGeometry>
        </mxCell>
        <mxCell id="x4BYb8i_tC0dA8c9-Woo-73" value="cím" style="ellipse;whiteSpace=wrap;html=1;fontStyle=4" parent="1" vertex="1">
          <mxGeometry x="420" y="350" width="90" height="40" as="geometry" />
        </mxCell>
        <mxCell id="x4BYb8i_tC0dA8c9-Woo-77" style="edgeStyle=orthogonalEdgeStyle;rounded=0;orthogonalLoop=1;jettySize=auto;html=1;exitX=1;exitY=0.5;exitDx=0;exitDy=0;endArrow=none;endFill=0;" parent="1" source="x4BYb8i_tC0dA8c9-Woo-74" target="x4BYb8i_tC0dA8c9-Woo-4" edge="1">
          <mxGeometry relative="1" as="geometry" />
        </mxCell>
        <mxCell id="x4BYb8i_tC0dA8c9-Woo-74" value="telefonszám" style="ellipse;whiteSpace=wrap;html=1;" parent="1" vertex="1">
          <mxGeometry x="165" y="390" width="90" height="40" as="geometry" />
        </mxCell>
        <mxCell id="x4BYb8i_tC0dA8c9-Woo-78" style="edgeStyle=orthogonalEdgeStyle;rounded=0;orthogonalLoop=1;jettySize=auto;html=1;exitX=1;exitY=0.5;exitDx=0;exitDy=0;endArrow=none;endFill=0;" parent="1" source="x4BYb8i_tC0dA8c9-Woo-75" target="x4BYb8i_tC0dA8c9-Woo-4" edge="1">
          <mxGeometry relative="1" as="geometry" />
        </mxCell>
        <mxCell id="x4BYb8i_tC0dA8c9-Woo-75" value="emailcím" style="ellipse;whiteSpace=wrap;html=1;" parent="1" vertex="1">
          <mxGeometry x="165" y="450" width="90" height="40" as="geometry" />
        </mxCell>
        <mxCell id="x4BYb8i_tC0dA8c9-Woo-81" value="dátum" style="ellipse;whiteSpace=wrap;html=1;fontStyle=0" parent="1" vertex="1">
          <mxGeometry x="400" y="169" width="90" height="40" as="geometry" />
        </mxCell>
        <mxCell id="x4BYb8i_tC0dA8c9-Woo-88" style="edgeStyle=orthogonalEdgeStyle;rounded=0;orthogonalLoop=1;jettySize=auto;html=1;endArrow=none;endFill=0;" parent="1" source="SuuwJisFTRQqqVZGx64X-11" target="x4BYb8i_tC0dA8c9-Woo-6" edge="1">
          <mxGeometry relative="1" as="geometry">
            <mxPoint x="545" y="690" as="sourcePoint" />
            <Array as="points">
              <mxPoint x="449" y="670" />
              <mxPoint x="345" y="670" />
            </Array>
          </mxGeometry>
        </mxCell>
        <mxCell id="x4BYb8i_tC0dA8c9-Woo-90" style="edgeStyle=orthogonalEdgeStyle;rounded=0;orthogonalLoop=1;jettySize=auto;html=1;exitX=0.5;exitY=0;exitDx=0;exitDy=0;endArrow=none;endFill=0;" parent="1" source="x4BYb8i_tC0dA8c9-Woo-89" target="x4BYb8i_tC0dA8c9-Woo-6" edge="1">
          <mxGeometry relative="1" as="geometry" />
        </mxCell>
        <mxCell id="x4BYb8i_tC0dA8c9-Woo-89" value="név" style="ellipse;whiteSpace=wrap;html=1;fontStyle=4" parent="1" vertex="1">
          <mxGeometry x="300" y="690" width="90" height="40" as="geometry" />
        </mxCell>
        <mxCell id="x4BYb8i_tC0dA8c9-Woo-96" style="edgeStyle=orthogonalEdgeStyle;rounded=0;orthogonalLoop=1;jettySize=auto;html=1;exitX=1;exitY=0.5;exitDx=0;exitDy=0;endArrow=none;endFill=0;" parent="1" source="x4BYb8i_tC0dA8c9-Woo-91" target="x4BYb8i_tC0dA8c9-Woo-3" edge="1">
          <mxGeometry relative="1" as="geometry" />
        </mxCell>
        <mxCell id="x4BYb8i_tC0dA8c9-Woo-91" value="név" style="ellipse;whiteSpace=wrap;html=1;" parent="1" vertex="1">
          <mxGeometry x="185" y="-110" width="90" height="40" as="geometry" />
        </mxCell>
        <mxCell id="x4BYb8i_tC0dA8c9-Woo-98" style="edgeStyle=orthogonalEdgeStyle;rounded=0;orthogonalLoop=1;jettySize=auto;html=1;exitX=0.5;exitY=1;exitDx=0;exitDy=0;endArrow=none;endFill=0;" parent="1" source="x4BYb8i_tC0dA8c9-Woo-92" target="x4BYb8i_tC0dA8c9-Woo-3" edge="1">
          <mxGeometry relative="1" as="geometry" />
        </mxCell>
        <mxCell id="x4BYb8i_tC0dA8c9-Woo-92" value="futárid" style="ellipse;whiteSpace=wrap;html=1;fontStyle=4" parent="1" vertex="1">
          <mxGeometry x="360" y="-160" width="90" height="40" as="geometry" />
        </mxCell>
        <mxCell id="x4BYb8i_tC0dA8c9-Woo-99" style="edgeStyle=orthogonalEdgeStyle;rounded=0;orthogonalLoop=1;jettySize=auto;html=1;exitX=0;exitY=0.5;exitDx=0;exitDy=0;endArrow=none;endFill=0;" parent="1" source="x4BYb8i_tC0dA8c9-Woo-93" target="x4BYb8i_tC0dA8c9-Woo-3" edge="1">
          <mxGeometry relative="1" as="geometry" />
        </mxCell>
        <mxCell id="x4BYb8i_tC0dA8c9-Woo-93" value="telefonszám" style="ellipse;whiteSpace=wrap;html=1;" parent="1" vertex="1">
          <mxGeometry x="435" y="-110" width="90" height="40" as="geometry" />
        </mxCell>
        <mxCell id="x4BYb8i_tC0dA8c9-Woo-97" style="edgeStyle=orthogonalEdgeStyle;rounded=0;orthogonalLoop=1;jettySize=auto;html=1;exitX=0.5;exitY=1;exitDx=0;exitDy=0;endArrow=none;endFill=0;" parent="1" source="x4BYb8i_tC0dA8c9-Woo-94" target="x4BYb8i_tC0dA8c9-Woo-3" edge="1">
          <mxGeometry relative="1" as="geometry" />
        </mxCell>
        <mxCell id="x4BYb8i_tC0dA8c9-Woo-94" value="emailcím" style="ellipse;whiteSpace=wrap;html=1;" parent="1" vertex="1">
          <mxGeometry x="255" y="-160" width="90" height="40" as="geometry" />
        </mxCell>
        <mxCell id="x4BYb8i_tC0dA8c9-Woo-102" style="edgeStyle=orthogonalEdgeStyle;rounded=0;orthogonalLoop=1;jettySize=auto;html=1;exitX=0.5;exitY=0;exitDx=0;exitDy=0;endArrow=none;endFill=0;" parent="1" source="x4BYb8i_tC0dA8c9-Woo-101" target="x4BYb8i_tC0dA8c9-Woo-6" edge="1">
          <mxGeometry relative="1" as="geometry" />
        </mxCell>
        <mxCell id="x4BYb8i_tC0dA8c9-Woo-101" value="alapár" style="ellipse;whiteSpace=wrap;html=1;" parent="1" vertex="1">
          <mxGeometry x="189" y="690" width="90" height="40" as="geometry" />
        </mxCell>
        <mxCell id="SuuwJisFTRQqqVZGx64X-4" style="edgeStyle=orthogonalEdgeStyle;rounded=0;orthogonalLoop=1;jettySize=auto;html=1;exitX=1;exitY=0.5;exitDx=0;exitDy=0;endArrow=none;endFill=0;" edge="1" parent="1" source="SuuwJisFTRQqqVZGx64X-3" target="x4BYb8i_tC0dA8c9-Woo-7">
          <mxGeometry relative="1" as="geometry">
            <Array as="points">
              <mxPoint x="50" y="290" />
              <mxPoint x="50" y="140" />
            </Array>
          </mxGeometry>
        </mxCell>
        <mxCell id="SuuwJisFTRQqqVZGx64X-3" value="admine" style="ellipse;whiteSpace=wrap;html=1;" vertex="1" parent="1">
          <mxGeometry x="-91" y="270" width="90" height="40" as="geometry" />
        </mxCell>
        <mxCell id="SuuwJisFTRQqqVZGx64X-7" style="edgeStyle=orthogonalEdgeStyle;rounded=0;orthogonalLoop=1;jettySize=auto;html=1;exitX=1;exitY=0.5;exitDx=0;exitDy=0;endArrow=none;endFill=0;" edge="1" parent="1">
          <mxGeometry relative="1" as="geometry">
            <mxPoint x="252" y="529.9999999999995" as="sourcePoint" />
            <mxPoint x="297" y="445" as="targetPoint" />
            <Array as="points">
              <mxPoint x="277" y="530" />
              <mxPoint x="277" y="445" />
            </Array>
          </mxGeometry>
        </mxCell>
        <mxCell id="SuuwJisFTRQqqVZGx64X-6" value="ételtípusok" style="ellipse;shape=doubleEllipse;margin=3;whiteSpace=wrap;html=1;align=center;" vertex="1" parent="1">
          <mxGeometry x="165" y="510" width="90" height="40" as="geometry" />
        </mxCell>
        <mxCell id="SuuwJisFTRQqqVZGx64X-11" value="allergének" style="ellipse;shape=doubleEllipse;margin=3;whiteSpace=wrap;html=1;align=center;" vertex="1" parent="1">
          <mxGeometry x="409" y="690" width="90" height="40" as="geometry" />
        </mxCell>
        <mxCell id="SuuwJisFTRQqqVZGx64X-19" style="edgeStyle=orthogonalEdgeStyle;rounded=0;orthogonalLoop=1;jettySize=auto;html=1;" edge="1" parent="1" source="SuuwJisFTRQqqVZGx64X-56" target="SuuwJisFTRQqqVZGx64X-21">
          <mxGeometry relative="1" as="geometry">
            <mxPoint x="559" y="445" as="sourcePoint" />
            <mxPoint x="619" y="445" as="targetPoint" />
          </mxGeometry>
        </mxCell>
        <mxCell id="SuuwJisFTRQqqVZGx64X-20" style="edgeStyle=orthogonalEdgeStyle;rounded=0;orthogonalLoop=1;jettySize=auto;html=1;" edge="1" parent="1" source="SuuwJisFTRQqqVZGx64X-56" target="x4BYb8i_tC0dA8c9-Woo-4">
          <mxGeometry relative="1" as="geometry">
            <mxPoint x="479" y="445" as="sourcePoint" />
          </mxGeometry>
        </mxCell>
        <mxCell id="SuuwJisFTRQqqVZGx64X-21" value="raktár" style="shape=ext;margin=3;double=1;whiteSpace=wrap;html=1;align=center;rounded=1;" vertex="1" parent="1">
          <mxGeometry x="614" y="425" width="100" height="40" as="geometry" />
        </mxCell>
        <mxCell id="SuuwJisFTRQqqVZGx64X-24" style="edgeStyle=orthogonalEdgeStyle;rounded=0;orthogonalLoop=1;jettySize=auto;html=1;exitX=0;exitY=0.5;exitDx=0;exitDy=0;endArrow=none;endFill=0;" edge="1" parent="1" source="SuuwJisFTRQqqVZGx64X-22" target="SuuwJisFTRQqqVZGx64X-21">
          <mxGeometry relative="1" as="geometry" />
        </mxCell>
        <mxCell id="SuuwJisFTRQqqVZGx64X-22" value="mennyiség" style="ellipse;whiteSpace=wrap;html=1;fontStyle=0" vertex="1" parent="1">
          <mxGeometry x="719" y="470" width="90" height="40" as="geometry" />
        </mxCell>
        <mxCell id="SuuwJisFTRQqqVZGx64X-25" style="edgeStyle=orthogonalEdgeStyle;rounded=0;orthogonalLoop=1;jettySize=auto;html=1;exitX=0;exitY=0.5;exitDx=0;exitDy=0;endArrow=none;endFill=0;" edge="1" parent="1" source="SuuwJisFTRQqqVZGx64X-23" target="SuuwJisFTRQqqVZGx64X-21">
          <mxGeometry relative="1" as="geometry" />
        </mxCell>
        <mxCell id="SuuwJisFTRQqqVZGx64X-23" value="összetevő" style="ellipse;whiteSpace=wrap;html=1;fontStyle=0" vertex="1" parent="1">
          <mxGeometry x="719" y="380" width="90" height="40" as="geometry" />
        </mxCell>
        <mxCell id="SuuwJisFTRQqqVZGx64X-44" style="edgeStyle=orthogonalEdgeStyle;rounded=0;orthogonalLoop=1;jettySize=auto;html=1;exitX=1;exitY=0.5;exitDx=0;exitDy=0;startArrow=none;startFill=0;endArrow=none;endFill=0;" edge="1" parent="1" source="SuuwJisFTRQqqVZGx64X-26" target="SuuwJisFTRQqqVZGx64X-42">
          <mxGeometry relative="1" as="geometry" />
        </mxCell>
        <mxCell id="SuuwJisFTRQqqVZGx64X-26" value="összetevők" style="rounded=1;whiteSpace=wrap;html=1;" vertex="1" parent="1">
          <mxGeometry x="29" y="620" width="90" height="30" as="geometry" />
        </mxCell>
        <mxCell id="SuuwJisFTRQqqVZGx64X-27" value="név" style="ellipse;whiteSpace=wrap;html=1;fontStyle=4" vertex="1" parent="1">
          <mxGeometry x="29" y="680" width="90" height="40" as="geometry" />
        </mxCell>
        <mxCell id="SuuwJisFTRQqqVZGx64X-40" style="edgeStyle=orthogonalEdgeStyle;rounded=0;orthogonalLoop=1;jettySize=auto;html=1;exitX=1;exitY=0.5;exitDx=0;exitDy=0;endArrow=none;endFill=0;" edge="1" parent="1" source="SuuwJisFTRQqqVZGx64X-28" target="SuuwJisFTRQqqVZGx64X-26">
          <mxGeometry relative="1" as="geometry" />
        </mxCell>
        <mxCell id="SuuwJisFTRQqqVZGx64X-28" value="egység" style="ellipse;whiteSpace=wrap;html=1;" vertex="1" parent="1">
          <mxGeometry x="-91" y="615" width="90" height="40" as="geometry" />
        </mxCell>
        <mxCell id="SuuwJisFTRQqqVZGx64X-39" style="edgeStyle=orthogonalEdgeStyle;rounded=0;orthogonalLoop=1;jettySize=auto;html=1;exitX=0.5;exitY=1;exitDx=0;exitDy=0;endArrow=none;endFill=0;" edge="1" parent="1" source="SuuwJisFTRQqqVZGx64X-29" target="SuuwJisFTRQqqVZGx64X-26">
          <mxGeometry relative="1" as="geometry" />
        </mxCell>
        <mxCell id="SuuwJisFTRQqqVZGx64X-29" value="ár" style="ellipse;whiteSpace=wrap;html=1;" vertex="1" parent="1">
          <mxGeometry x="29" y="560" width="90" height="40" as="geometry" />
        </mxCell>
        <mxCell id="SuuwJisFTRQqqVZGx64X-48" style="edgeStyle=orthogonalEdgeStyle;rounded=0;orthogonalLoop=1;jettySize=auto;html=1;exitX=0;exitY=0.5;exitDx=0;exitDy=0;endArrow=none;endFill=0;" edge="1" parent="1" source="SuuwJisFTRQqqVZGx64X-32" target="SuuwJisFTRQqqVZGx64X-43">
          <mxGeometry relative="1" as="geometry" />
        </mxCell>
        <mxCell id="SuuwJisFTRQqqVZGx64X-32" value="alapösszetevők" style="rounded=1;whiteSpace=wrap;html=1;" vertex="1" parent="1">
          <mxGeometry x="539" y="620" width="90" height="30" as="geometry" />
        </mxCell>
        <mxCell id="SuuwJisFTRQqqVZGx64X-37" style="edgeStyle=orthogonalEdgeStyle;rounded=0;orthogonalLoop=1;jettySize=auto;html=1;exitX=0.5;exitY=1;exitDx=0;exitDy=0;endArrow=none;endFill=0;" edge="1" parent="1" source="SuuwJisFTRQqqVZGx64X-34" target="SuuwJisFTRQqqVZGx64X-32">
          <mxGeometry relative="1" as="geometry" />
        </mxCell>
        <mxCell id="SuuwJisFTRQqqVZGx64X-34" value="egység" style="ellipse;whiteSpace=wrap;html=1;" vertex="1" parent="1">
          <mxGeometry x="539" y="560" width="90" height="40" as="geometry" />
        </mxCell>
        <mxCell id="SuuwJisFTRQqqVZGx64X-38" style="edgeStyle=orthogonalEdgeStyle;rounded=0;orthogonalLoop=1;jettySize=auto;html=1;exitX=0;exitY=0.5;exitDx=0;exitDy=0;endArrow=none;endFill=0;" edge="1" parent="1" source="SuuwJisFTRQqqVZGx64X-35" target="SuuwJisFTRQqqVZGx64X-32">
          <mxGeometry relative="1" as="geometry" />
        </mxCell>
        <mxCell id="SuuwJisFTRQqqVZGx64X-35" value="név" style="ellipse;whiteSpace=wrap;html=1;fontStyle=4" vertex="1" parent="1">
          <mxGeometry x="659" y="615" width="90" height="40" as="geometry" />
        </mxCell>
        <mxCell id="SuuwJisFTRQqqVZGx64X-41" style="edgeStyle=orthogonalEdgeStyle;rounded=0;orthogonalLoop=1;jettySize=auto;html=1;endArrow=none;endFill=0;" edge="1" parent="1" source="SuuwJisFTRQqqVZGx64X-26" target="SuuwJisFTRQqqVZGx64X-27">
          <mxGeometry relative="1" as="geometry">
            <mxPoint x="73.5" y="655" as="sourcePoint" />
            <mxPoint x="73.5" y="675" as="targetPoint" />
          </mxGeometry>
        </mxCell>
        <mxCell id="SuuwJisFTRQqqVZGx64X-45" style="edgeStyle=orthogonalEdgeStyle;rounded=0;orthogonalLoop=1;jettySize=auto;html=1;exitX=1;exitY=0.5;exitDx=0;exitDy=0;endArrow=none;endFill=0;" edge="1" parent="1" source="SuuwJisFTRQqqVZGx64X-42" target="x4BYb8i_tC0dA8c9-Woo-6">
          <mxGeometry relative="1" as="geometry" />
        </mxCell>
        <mxCell id="SuuwJisFTRQqqVZGx64X-42" value="összetevője" style="rhombus;whiteSpace=wrap;html=1;" vertex="1" parent="1">
          <mxGeometry x="164" y="610" width="91" height="50" as="geometry" />
        </mxCell>
        <mxCell id="SuuwJisFTRQqqVZGx64X-43" value="alapösszetevője" style="rhombus;whiteSpace=wrap;html=1;" vertex="1" parent="1">
          <mxGeometry x="410" y="610" width="115" height="50" as="geometry" />
        </mxCell>
        <mxCell id="SuuwJisFTRQqqVZGx64X-50" style="edgeStyle=orthogonalEdgeStyle;rounded=0;orthogonalLoop=1;jettySize=auto;html=1;exitX=0.5;exitY=0;exitDx=0;exitDy=0;endArrow=none;endFill=0;" edge="1" parent="1">
          <mxGeometry relative="1" as="geometry">
            <mxPoint x="445" y="247" as="sourcePoint" />
            <mxPoint x="387.5" y="233" as="targetPoint" />
            <Array as="points">
              <mxPoint x="445" y="230" />
              <mxPoint x="388" y="230" />
            </Array>
          </mxGeometry>
        </mxCell>
        <mxCell id="SuuwJisFTRQqqVZGx64X-49" value="összár" style="ellipse;whiteSpace=wrap;html=1;fontStyle=0" vertex="1" parent="1">
          <mxGeometry x="400" y="249" width="90" height="40" as="geometry" />
        </mxCell>
        <mxCell id="SuuwJisFTRQqqVZGx64X-52" style="edgeStyle=orthogonalEdgeStyle;rounded=0;orthogonalLoop=1;jettySize=auto;html=1;exitX=1;exitY=0.5;exitDx=0;exitDy=0;endArrow=none;endFill=0;" edge="1" parent="1" source="SuuwJisFTRQqqVZGx64X-51" target="x4BYb8i_tC0dA8c9-Woo-7">
          <mxGeometry relative="1" as="geometry">
            <Array as="points">
              <mxPoint x="50" y="-10" />
              <mxPoint x="50" y="140" />
            </Array>
          </mxGeometry>
        </mxCell>
        <mxCell id="SuuwJisFTRQqqVZGx64X-51" value="telefonszám" style="ellipse;whiteSpace=wrap;html=1;" vertex="1" parent="1">
          <mxGeometry x="-90" y="-30" width="90" height="40" as="geometry" />
        </mxCell>
        <mxCell id="SuuwJisFTRQqqVZGx64X-55" style="edgeStyle=orthogonalEdgeStyle;rounded=0;orthogonalLoop=1;jettySize=auto;html=1;exitX=0;exitY=0.5;exitDx=0;exitDy=0;endArrow=none;endFill=0;" edge="1" parent="1">
          <mxGeometry relative="1" as="geometry">
            <mxPoint x="490" y="229" as="sourcePoint" />
            <mxPoint x="387.5" y="225" as="targetPoint" />
            <Array as="points">
              <mxPoint x="490" y="230" />
              <mxPoint x="388" y="230" />
            </Array>
          </mxGeometry>
        </mxCell>
        <mxCell id="SuuwJisFTRQqqVZGx64X-53" value="kiszállítva" style="ellipse;whiteSpace=wrap;html=1;fontStyle=0" vertex="1" parent="1">
          <mxGeometry x="490" y="214" width="90" height="40" as="geometry" />
        </mxCell>
        <mxCell id="SuuwJisFTRQqqVZGx64X-56" value="birtokol" style="shape=rhombus;double=1;perimeter=rhombusPerimeter;whiteSpace=wrap;html=1;align=center;" vertex="1" parent="1">
          <mxGeometry x="470" y="420" width="100" height="50" as="geometry" />
        </mxCell>
        <mxCell id="SuuwJisFTRQqqVZGx64X-58" value="kosár" style="shape=ext;margin=3;double=1;whiteSpace=wrap;html=1;align=center;rounded=1;" vertex="1" parent="1">
          <mxGeometry x="302.5" y="212.5" width="85" height="35" as="geometry" />
        </mxCell>
        <mxCell id="SuuwJisFTRQqqVZGx64X-59" value="összeállít" style="shape=rhombus;double=1;perimeter=rhombusPerimeter;whiteSpace=wrap;html=1;align=center;" vertex="1" parent="1">
          <mxGeometry x="140" y="210" width="90" height="50" as="geometry" />
        </mxCell>
        <mxCell id="SuuwJisFTRQqqVZGx64X-60" value="kiszállít" style="shape=rhombus;double=1;perimeter=rhombusPerimeter;whiteSpace=wrap;html=1;align=center;" vertex="1" parent="1">
          <mxGeometry x="300" y="40" width="90" height="50" as="geometry" />
        </mxCell>
        <mxCell id="SuuwJisFTRQqqVZGx64X-61" value="feldolgozás" style="shape=rhombus;double=1;perimeter=rhombusPerimeter;whiteSpace=wrap;html=1;align=center;" vertex="1" parent="1">
          <mxGeometry x="295" y="280" width="100" height="50" as="geometry" />
        </mxCell>
      </root>
    </mxGraphModel>
  </diagram>
</mxfile>
